<svg width="1440" height="1000" viewBox="0 0 1440 1000" fill="none" xmlns="http://www.w3.org/2000/svg">
<g filter="url(#filter0_f_168_1185)">
<circle cx="148.5" cy="921.5" r="318.5" fill="#009A40" fill-opacity="0.15"/>
</g>
<g filter="url(#filter1_f_168_1185)">
<circle cx="1298.5" cy="101.5" r="318.5" fill="#009A40" fill-opacity="0.15"/>
</g>
<g opacity="0.3">
<path d="M215.199 766.809C216.253 766.641 216.372 761.207 215.774 761.135C213.595 760.919 212.757 767.168 215.199 766.809Z" stroke="#B2B2B2" stroke-miterlimit="10"/>
<path d="M-82.6528 821.179C-83.1316 830.397 -82.4613 852.303 -66.8756 844.546C-61.7043 842.008 -65.8221 834.61 -57.4906 834.826C-52.4869 834.97 -53.5164 842.583 -56.7484 845.887C-57.5385 846.701 -59.5974 854.577 -57.7779 853.572C-55.1683 851.92 -46.7889 852.255 -44.6821 854.53C-42.5752 856.804 -45.1609 858.049 -44.3948 860.443C-41.6894 869.229 -46.2382 870.498 -36.3027 874.281C-39.5826 873.036 -23.8772 874.784 -27.612 875.885C-25.3855 875.31 -24.5236 872.102 -22.3928 870.522C-21.3634 869.78 -11.7869 863.148 -10.4222 864.034C-12.3136 862.741 -11.5714 877.752 -9.68007 873.611C-9.00971 872.174 -10.1349 864.824 -6.041 864.824C-3.38352 864.824 -2.16255 869.565 -0.343018 869.972C4.32551 871.025 11.3164 867.96 14.9315 869.397C12.681 868.583 20.797 875.598 18.0199 875.765C24.7234 875.334 24.8192 881.128 29.9905 883.738C35.1618 886.347 39.8542 885.629 45.5522 889.364C51.4657 892.596 46.6057 904.902 46.3184 904.734C46.486 904.734 49.7419 900.616 51.6093 902.34C53.4768 904.064 51.6573 908.565 51.2981 908.421C53.1177 909.187 55.1766 903.705 57.2116 904.255C57.2834 904.255 69.3259 909.834 64.7291 911.725C68.847 910.025 69.0386 910.528 73.8268 911.174C79.046 911.917 83.8342 918.141 88.6224 917.878C102.413 917.16 80.3148 941.484 80.1712 941.484C78.1123 944.74 79.1657 955.035 78.1123 959.105C76.3646 965.712 74.7844 970.812 69.1822 974.355C64.8249 977.108 56.9961 975.911 53.4768 982.064C51.7291 985.129 53.2613 989.486 52.0164 992.862C51.1545 995.208 44.3552 1000.79 44.3552 1002.82C45.3315 1001.52 46.1361 1000.09 46.7493 998.584C46.7732 998.272 41.0034 1008.47 39.8543 1009.69C35.2097 1014.58 26.8063 1010.55 24.9868 1012.42C25.1065 1012.3 30.4454 1019.05 30.1581 1020.99C28.7695 1029.76 17.4932 1025.01 14.4048 1028.29C13.7583 1029.06 15.1948 1033.15 13.9499 1033.85C14.4048 1033.59 5.35501 1036.7 6.45631 1035.05C2.96089 1040.34 9.61654 1039.74 10.4545 1040.46C10.4784 1040.46 7.00692 1043.95 5.97745 1045.25C3.5873 1049.05 1.87796 1053.25 0.925862 1057.65C0.758273 1058.34 4.37339 1058.34 4.18186 1060.73C3.94245 1063.73 0.303416 1065.81 -1.18094 1068.52C-2.28223 1070.53 -4.00603 1071.13 -4.98761 1073.3C-5.53826 1074.69 -2.56954 1079.29 -3.14413 1079.84C-3.71872 1080.39 -5.68187 1078.33 -6.11282 1079.84C-6.54376 1081.35 -4.34117 1080.89 -3.7187 1081.04C-3.00046 1081.2 1.8117 1088.2 5.69017 1089.61C2.96227 1090.53 0.132406 1091.12 -2.73714 1091.36C-3.35961 1091.19 -1.49218 1094.06 -2.56953 1093.75C-4.59813 1092.52 -6.54906 1091.17 -8.41119 1089.7C-8.6021 1090.55 -8.94255 1091.37 -9.41671 1092.1C-9.32095 1092.15 -12.8642 1087.81 -12.8642 1088.91C-12.8642 1090.92 -10.542 1085.08 -11.5714 1086.52C-11.1559 1086.41 -10.7159 1086.47 -10.3418 1086.68C-9.96773 1086.89 -9.68808 1087.24 -9.56035 1087.64C-9.36882 1087.86 -10.0392 1084.7 -8.79425 1085.25C-8.73232 1086.17 -8.311 1087.03 -7.62112 1087.64C-7.88448 1087.79 -6.92684 1083.36 -6.2086 1084.15C-7.00949 1084.19 -7.81222 1084.14 -8.60272 1084.01C-8.63209 1083.43 -8.505 1082.86 -8.23507 1082.36C-7.96514 1081.85 -7.56256 1081.43 -7.07049 1081.13C-7.35778 1081.95 -12.6967 1084.72 -13.6064 1085.92C-14.5162 1087.12 -11.9066 1086.57 -13.0319 1087.72C-13.7022 1088.36 -17.8679 1085.78 -18.0834 1084.87C-17.8919 1085.68 -10.6377 1082.88 -11.0687 1081.92C-13.1368 1082.28 -15.1831 1082.75 -17.1976 1083.34C-17.03 1083.12 -12.0742 1079.67 -11.8108 1080.49C-12.6967 1077.59 -17.3412 1082.02 -18.0834 1080.97C-20.0466 1078.19 -14.3007 1079.79 -14.8274 1078.07C-15.3541 1076.34 -18.0355 1077.95 -19.2086 1077.52C-19.5438 1077.4 -17.3891 1075.72 -17.5567 1075.34C-18.1313 1074.17 -21.0761 1075.84 -21.3634 1075.51C-22.7759 1073.73 -16.7667 1069.33 -18.8256 1067.27C-19.8072 1066.29 -20.1663 1069.9 -20.8606 1069.9C-24.4039 1069.33 -19.1368 1063.7 -19.7832 1063.85C-20.3903 1064.44 -21.0654 1064.95 -21.7943 1065.38C-26.1277 1066.05 -16.7667 1059.13 -17.0061 1062.34C-16.8385 1060.21 -19.879 1062.65 -20.0466 1061.19C-20.1424 1060.33 -22.7999 1055.01 -23.0153 1057.41C-22.9914 1057.31 -17.437 1048.84 -19.2565 1049.65C-17.2455 1048.76 -18.8495 1054.2 -18.0834 1054.73C-16.5991 1055.76 -14.2289 1037.32 -15.6893 1037.75C-17.1497 1038.18 -17.7722 1046.39 -19.2565 1044.24C-22.4647 1039.59 -13.6782 1015.49 -12.6727 1010.87C-10.111 999.23 -9.77582 987.427 -8.43511 975.456C-7.52535 967.077 -5.84948 962.289 -11.1405 956.303C-16.9342 949.72 -22.1534 948.882 -26.2234 940.837C-28.2584 936.6 -37.404 924.486 -38.194 920.368C-38.601 918.237 -34.3395 911.294 -34.6268 910.791C-38.6489 903.441 -34.0761 902.077 -30.485 894.894C-27.205 888.191 -25.7206 877.202 -33.9085 875.286C-35.752 874.856 -34.6028 879.141 -38.2658 878.902C-41.9288 878.662 -46.0707 874.113 -48.4648 871.719C-49.9252 870.283 -50.6674 867.865 -53.253 865.207C-57.0836 861.305 -58.7595 863.172 -62.8295 859.437C-64.2899 857.929 -67.6656 857.857 -69.7485 855.846C-74.3691 851.321 -80.4502 853.021 -86.1961 851.202C-90.6013 849.813 -98.1906 846.892 -101.495 843.517C-106.402 838.345 -107.121 831.043 -112.627 823.981C-115.859 819.839 -121.198 815.601 -124.143 811.028C-125.196 809.376 -125.699 800.422 -131.445 800.997C-131.78 801.045 -116.027 829.726 -117.415 830.732C-116.865 830.325 -131.469 815.027 -131.469 814.883C-130.822 811.747 -131.541 810.334 -134.773 804.875C-136.818 800.926 -139.274 797.202 -142.099 793.767C-146.719 788.835 -153.567 784.166 -156.152 776.864C-159.935 766.234 -154.357 754.886 -157.756 745.142C-158.331 743.418 -167.548 730.227 -169.272 731.448C-161.132 725.702 -153.83 745.406 -153.567 745.406C-146.6 745.406 -159.289 734.704 -158.953 734.967C-162.567 732.74 -165.882 730.061 -168.817 726.995C-169.44 726.229 -174.132 721.512 -174.802 720.579C-175.784 719.286 -175.497 712.965 -177.197 712.75C-178.896 712.534 -182.224 715.671 -182.99 715.144C-183.276 713.379 -183.42 711.593 -183.421 709.805C-180.955 709.59 -178.106 706.19 -181.745 706.501C-184.139 706.693 -179.83 709.23 -180.716 709.661C-177.939 708.321 -187.324 708.943 -185.935 709.135C-184.977 709.254 -185.121 700.085 -185.456 700.947C-185.265 700.468 -185.528 706.812 -187.036 704.873C-186.967 704.134 -187.1 703.389 -187.419 702.718C-188.784 702.216 -186.749 707.579 -187.611 708.033C-187.467 707.962 -192.04 701.521 -192.04 701.234C-192.04 701.497 -183.23 700.3 -189.239 695.919C-189.523 697.088 -189.378 698.319 -188.832 699.391C-188.832 702.431 -201.377 691.538 -200.803 692.041C-202 690.987 -220.746 691.825 -221.153 690.532C-221.117 690.322 -221.038 690.121 -220.919 689.944C-220.8 689.766 -220.645 689.616 -220.464 689.503C-220.283 689.389 -220.08 689.316 -219.869 689.287C-219.657 689.258 -219.442 689.275 -219.237 689.335C-219.429 689.335 -223.714 686.75 -224.792 686.941C-228.072 687.54 -223.403 691.586 -224.792 692.112C-226.18 692.639 -235.206 695.752 -235.757 695.249C-237.648 693.525 -229.532 686.893 -229.532 687.348C-229.053 682.943 -242.628 694.267 -242.101 695.632C-241.288 695.894 -240.533 696.309 -239.875 696.853C-239.875 700.707 -263.959 716.987 -266.354 714.402C-264.271 716.556 -251.031 700.276 -249.906 696.901C-249.427 695.464 -257.591 698.194 -255.58 699.008C-257.83 698.098 -261.9 698.577 -263.074 697.954C-264.797 697.044 -262.762 693.118 -264.63 691.251C-263.912 691.945 -269.873 691.969 -271.812 690.269C-271.884 690.197 -275.092 683.087 -275.595 683.566C-273.981 682.434 -272.453 681.186 -271.022 679.831C-268.604 676.67 -268.077 679.4 -266.401 677.82C-264.726 676.239 -257.902 672.026 -261.039 668.913C-261.086 668.842 -272.315 671.236 -274.398 670.446C-274.853 670.278 -279.306 663.335 -280 664.987C-277.965 660.175 -259.626 661.157 -259.626 660.869C-260.871 657.063 -277.151 655.77 -275.619 648.779C-274.853 645.427 -259.578 642.051 -257.519 639.801C-254.958 636.976 -249.307 634.438 -247.177 636.832C-246.004 638.269 -226.396 640.423 -223.235 640.663C-221.105 640.854 -188.88 647.917 -189.359 648.444C-188.138 647.103 -191.777 645.499 -186.653 643.656C-184.57 642.913 -185.791 645.451 -184.57 644.805C-183.349 644.158 -172.743 639.609 -172.743 641.094C-172.72 640.807 -184.977 648.444 -183.134 648.444C-179.777 646.811 -176.516 644.989 -173.366 642.985C-173.869 643.272 -166.447 637.622 -168.841 637.981C-165.322 637.455 -165.729 644.709 -162.76 644.948C-161.252 643.894 -159.919 642.61 -158.81 641.142C-157.397 641.333 -158.475 645.475 -158.02 645.475C-154.931 645.475 -153.662 643.081 -150.335 643.44C-147.581 643.823 -145.355 645.499 -142.242 646.217C-139.13 646.935 -130.607 647.175 -129.099 650.67C-128.692 651.628 -134.078 652.011 -132.594 653.639C-129.554 656.967 -120.264 652.753 -116.194 654.118C-113.202 654.98 -113.8 658.403 -112.843 658.906C-110.64 660.079 -110.018 645.858 -106.618 649.593C-107.432 648.683 -112.603 652.226 -113.992 651.604C-115.907 650.742 -109.658 648.085 -108.725 648.085C-106.091 648.348 -106.163 649.88 -104.703 650.215C-99.6989 651.412 -97.3527 654.285 -91.5829 653.543C-78.9419 651.915 -89.4521 647.893 -88.255 646.361C-87.6906 645.516 -86.9596 644.795 -86.1069 644.242C-85.2543 643.69 -84.2978 643.317 -83.296 643.146C-82.2943 642.976 -81.2683 643.012 -80.2809 643.252C-79.2934 643.492 -78.3653 643.93 -77.5533 644.541C-76.3802 645.475 -79.7559 645.284 -79.7559 645.738C-79.7559 646.193 -73.4354 646.193 -76.0211 648.587C-76.3563 648.923 -82.988 649.928 -82.7246 650.407C-80.9359 652.49 -79.0168 654.457 -76.9787 656.296C-77.4097 656.68 -72.5017 647.51 -72.6214 647.247C-73.0799 647.22 -73.5309 647.372 -73.8793 647.671C-74.2276 647.971 -74.4462 648.394 -74.4889 648.851C-70.0119 645.236 -79.5405 643.081 -80.0193 641.429C-81.2882 637.191 -77.697 635.468 -77.4336 634.414C-76.5478 631.062 -76.883 622.707 -76.3084 620.624C-75.3029 616.961 -68.6472 617.512 -64.0984 618.948C-59.5495 620.385 -72.6454 629.626 -72.9806 626.131C-72.2384 633.552 -74.2016 626.969 -71.3047 633.552C-71.3047 633.552 -66.9713 641.429 -66.5165 640.735C-66.8756 641.261 -70.2273 642.219 -68.2402 643.967C-68.3599 643.871 -62.0634 643.249 -63.0689 645.14C-63.2126 645.403 -65.5588 651.101 -63.4998 650.718C-62.9253 650.551 -61.2254 644.757 -60.1002 645.762C-58.6158 646.983 -57.4667 649.784 -56.6048 650.551C-56.2696 650.862 -56.0781 655.291 -53.8755 656.32C-51.6729 657.35 -54.9289 650.982 -53.2291 650.982C-52.9713 651.702 -52.5444 652.351 -51.9841 652.873C-47.9381 650.527 -49.9491 643.201 -48.4648 642.722C-44.8419 642.534 -41.2877 643.762 -38.5531 646.145C-37.0448 648.611 -41.8331 649.928 -41.8331 650.311C-41.6416 653.759 -36.8055 654.142 -39.9657 657.685C-44.0836 662.282 -47.2198 657.015 -48.1296 657.901C-48.393 658.164 -45.3045 661.037 -46.1425 661.037C-47.3395 661.037 -53.253 660.845 -53.0376 661.037C-46.8128 666.495 -62.4704 665.705 -62.207 663.431C-62.614 666.807 -55.4556 665.897 -54.1628 666.807C-51.0983 668.937 -63.3562 674.3 -62.4465 671.595C-64.4096 677.461 -71.568 669.68 -72.7412 672.481C-72.789 672.624 -64.3617 675.785 -64.3617 676.24C-64.4335 675.928 -74.7283 686.917 -75.1592 689.311C-76.8111 698.505 -73.8664 693.31 -71.1132 697.978C-70.6343 698.744 -68.4796 704.993 -69.6049 705.16C-65.4344 704.304 -61.0949 704.994 -57.3949 707.1C-54.5937 708.297 -41.9767 713.085 -40.9472 714.282C-38.4095 717.179 -41.45 722.853 -37.0927 726.755C-33.2142 730.227 -34.7226 727.019 -31.275 728.647C-30.7483 728.886 -31.7778 721.105 -31.6102 720.291C-31.2271 718.232 -33.7409 716.485 -33.2382 714.785C-32.8551 713.516 -27.636 712.893 -26.7741 710.691C-23.9251 703.461 -28.5936 701.665 -29.671 696.039C-29.8146 695.273 -28.3542 690.125 -28.3542 688.856C-27.7796 681.602 -31.5384 681.028 -22.3689 680.764C-21.1479 680.74 -4.93972 685.577 -4.93972 687.444C-4.93972 691.729 -5.58612 699.223 0.949826 699.223C6.8633 699.199 4.948 692.208 8.34764 689.144C7.84488 689.599 14.8357 699.391 15.3385 700.971C17.2298 706.788 17.2538 702.623 14.3569 706.357C12.9204 708.225 28.6019 715.742 28.6019 715.742C27.7879 717.131 20.4619 717.418 21.0125 720.1C21.0365 720.124 28.3385 717.083 29.0328 717.562C28.9786 718.365 29.0432 719.172 29.2244 719.956C36.4067 720.818 29.8229 722.446 31.6185 724.122C32.2729 724.409 32.8953 724.72 33.4859 725.056C35.6885 730.801 9.49683 732.765 7.60547 733.196C2.96088 734.249 -6.85501 746.22 -9.00972 746.22C-4.5806 746.22 -1.34855 736.835 5.11557 737.673C14.4766 738.774 4.73251 740.905 5.52256 743.562C6.34903 743.619 7.17563 743.454 7.91668 743.083C10.7896 744.999 7.2703 749.978 14.6442 751.343C16.9748 750.491 19.0167 748.997 20.5337 747.034C20.3182 748.35 21.8026 750.337 21.635 750.337C18.7381 752.54 12.8725 756.323 8.99407 756.897C1.40471 758.023 4.42128 754.671 10.7657 752.803C9.04192 753.306 7.65334 750.768 7.96458 750.146C5.49863 755.245 -2.54559 754.479 -5.75371 757.831C-7.3433 760.352 -8.37209 763.185 -8.77029 766.139C-9.77582 766.857 -16.9582 766.378 -16.9582 768.772C-16.9582 768.916 -12.4094 768.245 -12.7206 768.916C-13.4149 770.352 -22.2971 773.417 -22.2971 775.141C-22.4168 777.295 -20.6451 780.072 -23.3744 781.964C-23.2547 781.892 -25.2658 773.896 -24.2124 773.896C-26.9417 773.896 -25.3376 782.419 -25.3376 783.041C-25.8404 789.026 -21.9619 783.233 -25.984 788.38C-27.6359 790.63 -33.1664 794.892 -35.5605 798.34C-37.404 801.045 -36.9491 823.741 -37.2124 823.741C-40.4445 822.688 -41.0191 816.391 -42.4556 813.997C-46.0946 807.796 -44.9933 809.257 -49.7816 807.796C-52.3261 806.73 -55.0442 806.137 -57.8019 806.049C-60.7706 806.336 -62.9253 810.19 -60.3636 810.502C-70.1316 809.352 -81.7909 804.971 -82.6528 821.179ZM-82.6528 821.179C-82.8496 821.042 -83.0578 820.922 -83.2753 820.82" stroke="#B2B2B2" stroke-miterlimit="10"/>
<path d="M1.30892 845.575C2.41021 847.467 5.59441 846.341 5.85777 845.575C6.36053 844.211 0.303388 843.66 1.30892 845.575Z" stroke="#B2B2B2" stroke-miterlimit="10"/>
<path d="M43.9964 643.847C44.2837 639.059 36.8141 641.453 35.6889 641.453C34.5636 641.453 43.6613 649.737 43.9964 643.847Z" stroke="#B2B2B2" stroke-miterlimit="10"/>
<path d="M127.647 640.519C126.737 641.046 115.676 639.346 115.676 639.538C115.988 638.795 119.674 634.558 119.196 634.39C121.59 635.3 128.557 643.536 128.772 635.899C128.964 631.374 122.595 631.35 121.59 627.735C121.279 626.705 130.065 630.56 128.317 625.125C127.336 622.061 118.741 627.328 119.052 624.024C119.052 625.149 122.021 619.954 121.446 620.552C124.199 617.512 136.649 627.926 128.628 617.488C128.293 617.057 135.811 617.2 136.242 615.644C136.673 614.088 128.7 614.328 130.496 611.359C132.746 607.648 138.396 613.035 134.757 605.469C134.877 605.709 125.636 602.572 127.048 601.184C128.461 599.795 139.33 601.064 139.019 599.508C137.966 595.558 132.603 599.723 132.172 596.324C131.932 594.552 135.428 596.324 135.931 595.438C137.918 592.326 127.455 594.815 127.838 595.103C125.013 592.924 139.402 579.493 139.809 580.068C137.152 576.548 134.733 582.462 132.866 580.57C130.999 578.679 143.28 577.195 143.64 576.979C144.669 576.309 137.08 574.729 136.745 575.303C138.061 573.029 155.778 573.316 155.778 568.432C155.778 561.848 139.019 568.145 137.08 568.767C135.619 569.222 133.489 567.307 132.459 567.69C129.083 568.983 125.995 574.465 122.356 574.992C125.899 574.465 129.921 565.895 124.151 564.865C123.242 564.721 113.45 572.047 112.851 569.653C112.348 567.906 118.741 567.259 118.597 565.679C118.286 562.662 97.7683 567.403 97.7443 566.948C97.4331 562.782 126.282 564.554 129.179 560.556C130.807 558.401 92.5012 552.2 89.0298 553.086C88.1679 553.301 82.9487 555.169 82.398 555.241C81.1981 555.103 79.9908 555.039 78.7829 555.049C72.2709 555.791 65.9026 555.36 59.4145 556.605C58.6005 556.749 62.2396 559.191 62.1917 559.382C62.1438 559.574 56.4937 559.981 57.2598 561.011C59.8984 562.785 62.3885 564.77 64.7055 566.948C60.1327 567.906 51.7294 557.371 47.0848 560.819C45.9596 561.657 50.4605 564.41 50.4605 565.057C50.4605 567.594 41.2432 562.184 41.5065 562.184C40.8122 562.184 41.0756 567.69 39.7828 568.504C43.757 566.11 34.8748 562.543 33.4862 562.399C31.9778 562.268 30.4654 562.604 29.1547 563.362C27.844 564.12 26.7985 565.264 26.1602 566.637C24.0773 567.355 21.0368 564.841 18.3554 565.918C16.4401 566.709 20.0313 569.917 17.3977 571.401C16.6795 571.784 -1.9228 572.239 0.638908 578.033C2.53026 582.414 12.6095 577.817 3.65548 585.215C1.26137 587.202 -5.92097 586.388 -8.88967 588.471C-23.1347 598.191 4.27798 591.775 4.01462 597.21C4.01462 597.808 -10.5416 597.832 -10.3501 599.173C-9.96703 601.136 -0.151164 605.685 2.45842 605.924C7.74943 606.427 12.825 602.477 19.8876 605.924C23.2352 607.486 26.2331 609.707 28.7015 612.455C31.1698 615.203 33.0578 618.421 34.2523 621.917C36.407 629.985 31.2836 631.015 39.7349 631.015C41.8386 633.855 44.2471 636.456 46.9172 638.771C46.6299 639.035 37.4844 635.18 37.4844 637.479C37.4844 642.937 50.245 638.963 46.8454 648.635C46.3187 650.096 42.2966 648.061 41.0995 651.029C40.1709 652.974 39.6805 655.099 39.663 657.254C39.4476 661.156 45.3371 674.707 49.6704 680.669C53.1419 685.457 55.2009 686.175 60.1328 688.378C67.8418 691.849 66.0462 692.28 70.3796 685.84C72.0794 683.326 69.4937 680.86 70.1641 678.921C70.5232 677.891 73.851 677.915 74.3299 675.737C74.9763 672.888 74.5932 668.219 74.9523 666.974C75.8777 666.878 76.8128 667.001 77.6817 667.333C78.0647 667.118 82.8529 660.678 83.4275 660.678C83.7829 661.002 84.0134 661.441 84.079 661.918C84.1446 662.394 84.0412 662.879 83.7866 663.287C84.6964 666.208 95.7572 656.416 95.9248 656.249C100.115 653.208 99.516 652.993 103.251 651.341C111.558 647.606 120.895 644.517 127.647 640.519Z" stroke="#B2B2B2" stroke-miterlimit="10"/>
<path d="M-12.9833 635.875C-12.3484 635.875 -11.7394 635.622 -11.2904 635.173C-10.8414 634.724 -10.5892 634.115 -10.5892 633.481C-10.0385 635.252 -19.8544 630.105 -20.7402 629.817C-22.9189 629.075 -21.5782 627.064 -25.0975 626.274C-27.4917 625.724 -31.2026 629.315 -31.0828 629.339C-34.3628 628.189 -32.9981 629.554 -36.6851 629.554C-39.4144 629.554 -34.7937 614.687 -46.6446 621.821C-53.827 626.107 -47.8417 628.405 -47.5304 632.93C-47.5304 633.696 -52.8454 631.35 -52.6299 627.902C-52.4144 624.455 -48.512 621.941 -48.512 619.978C-48.512 616.339 -61.3685 624.407 -61.9909 627.16C-62.8528 630.991 -57.3224 638.652 -55.0719 635.659C-55.6465 636.425 -61.0812 634.941 -60.9375 636.377C-60.1474 644.23 -31.8489 639.322 -31.2504 640.926C-31.6272 640.682 -31.9493 640.362 -32.1965 639.987C-32.4437 639.612 -32.6107 639.19 -32.6869 638.748C-32.3038 637.431 -22.7274 644.685 -22.6555 645.283C-23.7432 645.917 -24.6693 646.794 -25.3609 647.845C-23.5414 649.401 -21.5064 646.313 -18.4658 649.473C-15.0422 653.04 -15.0901 652.298 -14.2761 657.709C-14.1085 658.834 -3.86173 655.53 -5.72914 660.271C-7.59655 665.011 -10.278 659.05 -11.6426 659.481C-13.0073 659.912 -16.4308 660.031 -18.3461 660.606C-18.6574 660.606 -17.3885 664.125 -17.2448 664.053C-20.1178 665.466 -24.8342 664.221 -27.0368 666.112C-35.2007 673.103 -18.2982 668.866 -15.9999 669.584C-13.7015 670.302 0.399832 687.564 4.06283 682.56C4.9726 681.291 -2.13797 673.582 -3.45473 673.965C1.93203 672.409 9.85658 681.339 7.03152 672.289C5.76263 668.267 -3.7899 665.107 0.375871 660.151C2.12358 658.044 9.37777 666.926 10.5988 666.902C10.5988 666.902 17.7811 659.409 17.7811 659.457C17.7811 654.453 -1.92247 651.748 -1.37183 646.912C-0.169679 646.369 1.11923 646.045 2.43481 645.954C1.56309 645.078 0.457728 644.471 -0.749368 644.206C-1.10849 641.237 2.38693 641.381 -2.61678 641.381C1.02228 641.381 -7.64442 637.431 -7.95565 637.335C-9.03301 637 -12.9833 635.875 -12.9833 635.875Z" stroke="#B2B2B2" stroke-miterlimit="10"/>
<path d="M9.066 734.991C9.30541 736.068 16.4638 739.3 16.7032 737.816C16.9427 736.332 8.85053 734.057 9.066 734.991Z" stroke="#B2B2B2" stroke-miterlimit="10"/>
<path d="M-65.0554 567.427C-60.6263 564.314 -64.2893 568.744 -64.2415 568.791C-63.3598 568.851 -62.4859 568.996 -61.6318 569.222C-66.4201 574.992 -52.4624 574.011 -52.5342 572.957C-51.9117 581.935 -34.5544 569.965 -32.4715 571.449C-28.4494 574.298 -42.9817 577.099 -42.6465 577.578C-42.6465 577.578 -37.9779 581.528 -38.5525 581.576C-41.3297 581.768 -55.7662 571.497 -53.3242 580.642C-52.7497 582.773 -41.3536 587.13 -41.3536 589.165C-41.3536 589.165 -55.7184 584.904 -56.0057 591.057C-56.2212 594.959 -48.1051 590.362 -48.0093 590.602C-49.2782 587.801 -46.7644 599.364 -46.7644 597.138C-46.7644 599.747 -57.8492 590.338 -57.3943 595.51C-56.3824 596.456 -55.2843 597.306 -54.1143 598.048C-54.1143 598.957 -63.6908 599.723 -61.4164 601.998C-59.142 604.272 -29.8858 605.421 -28.4254 601.878C-26.965 598.335 -39.2708 599.316 -39.8693 598.383C-38.1216 601.088 -28.8803 593.594 -28.2578 593.164C-23.6611 590.626 -21.7458 594.337 -19.3038 587.154C-18.5856 585 -27.2763 584.928 -27.2044 584.76C-22.1289 581.169 -15.4493 582.629 -10.8286 580.307C-8.02752 578.919 8.58763 570.324 8.77916 569.055C8.97069 567.786 0.974343 568.72 0.51946 568.528C4.35005 570.204 17.9726 561.178 18.1402 561.346C17.0628 561.011 1.38135 555.648 1.04617 559.694C1.68312 558.757 2.5709 558.019 3.60789 557.563C0.49554 558.808 -14.9465 557.97 -17.0534 558.09C-24.2357 558.473 -31.0111 557.156 -37.2358 558.88C-38.5046 559.215 -67.5214 568.744 -68.072 567.69C-67.5976 567.943 -67.0602 568.052 -66.5247 568.006C-65.9892 567.959 -65.4788 567.758 -65.0554 567.427Z" stroke="#B2B2B2" stroke-miterlimit="10"/>
<path d="M33.3184 729.269C30.705 730.907 28.6446 733.292 27.405 736.116C27.1177 736.763 21.683 742.197 23.8856 743.49C28.8654 746.435 33.4621 739.037 33.9888 745.573C33.7973 743.394 41.1712 746.387 41.5303 745.741C41.3866 746.028 39.3516 740.091 40.3332 740.522C41.3148 740.952 30.5173 733.339 30.7567 734.728C31.1309 732.719 32.0127 730.84 33.3184 729.269Z" stroke="#B2B2B2" stroke-miterlimit="10"/>
<path d="M198.775 773.201C198.56 771.669 195.759 773.656 196.381 774.111C197.578 774.997 199.015 774.733 198.775 773.201Z" stroke="#B2B2B2" stroke-miterlimit="10"/>
<path d="M261.263 788.595C261.263 787.614 253.291 788.595 253.458 788.595C252.477 788.404 261.502 791.109 261.263 788.595Z" stroke="#B2B2B2" stroke-miterlimit="10"/>
<path d="M282.092 789.625C282.724 788.728 283.403 787.865 284.127 787.039C281.94 787.494 279.823 788.235 277.83 789.242C276.729 791.301 282.331 790.99 282.092 789.625Z" stroke="#B2B2B2" stroke-miterlimit="10"/>
<path d="M147.016 671.116C155.802 670.637 147.542 657.35 143.377 659.792C142.419 660.342 136.194 663.766 135.165 663.431C135.006 663.024 134.739 662.669 134.393 662.403C134.047 662.137 133.635 661.971 133.202 661.923C127.743 668.363 133.417 660.055 125.876 660.055C124.295 660.055 126.69 662.282 126.259 662.234C124.75 662.066 122.428 661.587 122.069 664.46C121.901 665.705 128.318 665.418 128.102 665.179C127.887 664.939 127.48 667.573 127.671 667.357C127.863 667.142 122.524 667.573 122.883 668.482C123.05 668.794 127.432 668.913 128.198 669.823C129.586 671.427 126.69 673.438 126.378 673.103C131.717 678.873 141.365 671.451 147.016 671.116Z" stroke="#B2B2B2" stroke-miterlimit="10"/>
<path d="M163.319 728.024C170.501 728.024 172.632 722.757 171.914 717.203C171.674 715.288 175.601 714.976 171.196 712.606C169.225 712.683 167.282 713.096 165.45 713.827C165.306 717.753 165.737 714.282 161.547 716.58C161.428 716.772 161.523 728.024 163.319 728.024Z" stroke="#B2B2B2" stroke-miterlimit="10"/>
<path d="M185.728 691.466C186.422 690.7 187.236 687.779 186.183 688.09C185.129 688.402 185.417 691.801 185.728 691.466Z" stroke="#B2B2B2" stroke-miterlimit="10"/>
<path d="M171.673 698.529C171.147 697.954 169.016 701.258 169.83 701.234C170.644 701.21 172.224 699.127 171.673 698.529Z" stroke="#B2B2B2" stroke-miterlimit="10"/>
<path d="M170.981 702.575C173.663 700.181 171.149 711.601 171.149 710.14C171.149 708.105 174.668 711.146 174.285 711.218C175.061 710.616 175.617 709.774 175.865 708.823C177.11 709.015 175.051 713.612 175.099 713.995C175.315 715.838 179.887 712.869 180.055 713.324C182.976 718.424 177.661 720.507 177.876 723.93C177.128 724.1 176.446 724.485 175.914 725.038C175.382 725.591 175.024 726.288 174.884 727.043C177.138 727.586 179.438 727.915 181.755 728.024C181.874 728.862 172.178 730.897 174.572 734.105C174.572 733.986 192.241 730.227 193.294 729.149C194.348 728.072 191.475 728.79 191.571 728.024C192.026 724.457 194.803 726.133 193.294 722.23C191.954 721.614 190.774 720.696 189.847 719.549C187.86 716.197 185.921 708.991 181.108 709.35C181.108 709.35 184.197 704.203 183.862 703.413C182.521 699.965 179.959 703.892 178.044 701.593C177.397 700.803 181.994 697.763 180.653 696.494C179.576 695.584 171.197 702.407 170.981 702.575Z" stroke="#B2B2B2" stroke-miterlimit="10"/>
<path d="M221.305 713.707C220.778 713.564 228.296 711.672 224.729 709.254C221.664 707.195 221.018 713.636 221.305 713.707Z" stroke="#B2B2B2" stroke-miterlimit="10"/>
<path d="M241.225 700.971C239.645 700.971 238.831 704.37 239.334 704.921C239.836 705.472 242.781 700.923 241.225 700.971Z" stroke="#B2B2B2" stroke-miterlimit="10"/>
<path d="M249.915 700.013C251.014 699.549 251.995 698.846 252.788 697.954C254.799 695.775 246.898 700.252 249.915 700.013Z" stroke="#B2B2B2" stroke-miterlimit="10"/>
<path d="M252.261 696.111C252.596 695.416 249.867 695.728 250.489 696.326C250.612 696.445 250.76 696.535 250.922 696.589C251.084 696.643 251.257 696.661 251.426 696.64C251.596 696.62 251.759 696.561 251.903 696.47C252.048 696.378 252.17 696.255 252.261 696.111Z" stroke="#B2B2B2" stroke-miterlimit="10"/>
<path d="M240.195 578.966C242.589 580.978 247.09 578.679 249.987 580.451C249.843 580.451 244.169 582.558 244.193 582.629C245.582 586.292 265.98 584.425 264.567 578.775C264.4 578.081 251.304 576.261 251.831 576.07C251.42 576.432 251.145 576.925 251.054 577.465C250.962 578.005 251.059 578.561 251.328 579.038C250.25 579.828 244.983 575.519 243.81 575.663C243.084 576.351 242.484 577.161 242.039 578.057C241.32 577.53 240.626 576.979 239.932 576.429C237.514 576.477 239.86 578.703 240.195 578.966Z" stroke="#B2B2B2" stroke-miterlimit="10"/>
<path d="M223.125 584.449C218.984 583.491 225.328 590.913 226.334 591.488C228.249 592.589 229.781 587.897 231.122 587.346C232.462 586.795 230.547 589.932 231.888 589.74C232.804 589.184 233.796 588.765 234.833 588.495C236.054 590.362 226.07 593.978 227.459 594.313C229.973 594.935 232.654 593.331 235.264 593.954C232.644 594.493 230.085 595.295 227.626 596.348C227.363 598.742 232.032 598.742 233.109 599.101C232.995 599.391 232.811 599.648 232.573 599.849C232.334 600.05 232.049 600.188 231.744 600.25C231.122 601.112 235.216 601.519 235.862 601.136C237.448 599.03 238.896 596.822 240.195 594.528C240.674 593.906 244.648 584.425 247.114 588.304C246.444 587.274 248.12 596.587 247.234 596.396C248.264 596.635 257.672 598.215 257.289 593.834C257.481 596.084 247.545 586.652 247.713 586.652C244.625 584.114 240.004 583.707 237.825 583.18C239.094 583.491 235.766 579.038 234.186 578.512C231.792 577.769 234.689 586.723 234.857 586.005C236.963 576.788 228.44 584.018 228.512 583.994C227.724 583.163 226.858 582.41 225.927 581.744C226.683 581.335 227.487 581.021 228.321 580.81C227.746 581.361 212.519 581.983 223.125 584.449Z" stroke="#B2B2B2" stroke-miterlimit="10"/>
<path d="M220.563 589.884C221.157 590.453 221.816 590.951 222.526 591.368C221.616 591.368 220.611 586.58 218.839 587.178C218.741 587.763 218.863 588.363 219.181 588.862C219.499 589.362 219.992 589.726 220.563 589.884Z" stroke="#B2B2B2" stroke-miterlimit="10"/>
<path d="M714.901 675.449C713.642 675.371 712.403 675.793 711.453 676.623C712.004 677.293 720 679.16 720 677.341C718.584 676.116 716.773 675.444 714.901 675.449Z" stroke="#B2B2B2" stroke-miterlimit="10"/>
<path d="M579.464 760.249C579.057 757.496 572.904 769.251 575.993 767.551C575.466 767.838 578.555 765.803 578.387 766.258C577.86 765.492 577.31 764.75 576.735 764.008C576.735 764.678 594.452 764.535 593.494 756.825C593.973 760.991 578.674 754.096 580.494 752.899C580.805 752.803 579.393 759.866 579.464 760.249Z" stroke="#B2B2B2" stroke-miterlimit="10"/>
<path d="M546.713 798.172C547.599 799.944 548.389 795.778 548.868 797.837C548.868 798.148 547.695 804.492 549.753 804.038C551.405 803.678 554.542 797.621 551.836 796.52C551.286 796.233 544.486 793.671 546.713 798.172Z" stroke="#B2B2B2" stroke-miterlimit="10"/>
<path d="M556.482 797.406C557.081 794.748 560.744 797.909 560.744 793.719C560.744 791.492 556.314 793.719 556.171 794.102C555.596 795.443 555.883 800.039 556.482 797.406Z" stroke="#B2B2B2" stroke-miterlimit="10"/>
<path d="M562.539 788.332C562.539 788.332 549.012 788.931 550.065 793.671C550.209 794.293 561.461 792.618 562.275 792.426C559.738 793.025 564.669 794.222 565.268 794.174C567.183 794.03 565.723 791.397 566.082 791.157C568.213 789.864 574.701 792.354 576.927 789.314C578.651 786.92 582.601 770.639 579.537 768.868C575.682 766.665 573.791 779.067 571.971 781.581C570.559 783.568 562.922 784.118 562.539 788.332Z" stroke="#B2B2B2" stroke-miterlimit="10"/>
<path d="M492.702 844.211C493.276 843.051 493.765 841.851 494.162 840.62C493.851 839.375 486.98 840.308 488.297 843.014C488.464 843.301 492.343 848.76 492.702 844.211Z" stroke="#B2B2B2" stroke-miterlimit="10"/>
<path d="M521.504 833.318C522.845 832.312 526.029 825.441 524.952 823.885C521.409 818.69 518.464 835.664 521.504 833.318Z" stroke="#B2B2B2" stroke-miterlimit="10"/>
<path d="M518.965 852.135C517.074 858.408 537.304 866.787 533.114 871.576C539.842 863.867 525.405 860.73 523.921 857.211C522.436 853.692 529.116 848.64 523.921 845.623C520.425 843.517 519.037 851.872 518.965 852.135Z" stroke="#B2B2B2" stroke-miterlimit="10"/>
<path d="M515.423 871.767C513.95 873.212 512.757 874.916 511.903 876.795C511.568 876.124 519.086 871.408 517.649 868.439C517.06 868.8 516.556 869.285 516.172 869.859C515.787 870.434 515.532 871.085 515.423 871.767Z" stroke="#B2B2B2" stroke-miterlimit="10"/>
<path d="M520.522 861.329C520.761 862.574 521.336 865.183 523.155 864.561C524.975 863.938 520.354 860.419 520.522 861.329Z" stroke="#B2B2B2" stroke-miterlimit="10"/>
<path d="M532.084 872.126C531.437 871.216 529.809 872.892 530.049 873.563C530.288 874.233 532.754 873.036 532.084 872.126Z" stroke="#B2B2B2" stroke-miterlimit="10"/>
<path d="M534.815 873.658C534.815 873.658 522.844 881.415 524.879 881.224C526.914 881.032 527.728 878.207 529.787 879.668C531.846 881.128 530.601 885.797 534.576 885.797C531.631 885.797 537.712 879.476 537.448 880.577C537.754 879.293 537.666 877.947 537.196 876.713C536.727 875.479 535.897 874.415 534.815 873.658Z" stroke="#B2B2B2" stroke-miterlimit="10"/>
<path d="M524.951 865.902C524.439 866.48 524.17 867.234 524.201 868.006C524.232 868.778 524.561 869.508 525.118 870.043C530.266 868.918 523.299 873.994 527.249 874.832C530.697 875.717 530.936 864.609 524.951 865.902Z" stroke="#B2B2B2" stroke-miterlimit="10"/>
<path d="M607.859 917.662C607.859 921.23 598.69 919.003 598.594 920.056C598.091 925.228 612.671 920.224 609.679 916.441C608.673 916.202 608.074 916.585 607.859 917.662Z" stroke="#B2B2B2" stroke-miterlimit="10"/>
<path d="M611.545 917.303C613.939 916.609 609.654 913.473 609.151 913.353C609.869 913.52 610.803 917.543 611.545 917.303Z" stroke="#B2B2B2" stroke-miterlimit="10"/>
<path d="M595.793 923.6C598.019 923.744 588.611 915.891 586.576 914.67C581.787 911.964 572.522 907.751 567.734 908.038C566.345 908.038 564.406 912.371 562.706 912.06C559.283 911.438 561.246 907.799 558.804 906.793C556.721 905.931 556.721 903.585 552.962 904.16C552.316 904.16 548.748 907.08 550.017 907.344C550.712 907.511 557.942 911.533 557.99 910.288C557.99 910.863 553.537 910.815 553.202 910.887C551.19 911.27 560.719 915.939 561.318 916.226C565.531 918.285 568.5 917.83 571.014 922.115C573.528 926.401 567.614 926.162 568.62 928.101C570.391 931.644 583.679 928.508 585.091 928.532C588.97 928.532 588.898 928.412 593.734 930.926C593.734 930.926 605.705 936.935 604.364 934.804C603.765 933.823 593.375 923.456 595.793 923.6Z" stroke="#B2B2B2" stroke-miterlimit="10"/>
<path d="M411.59 872.749C409.818 872.964 409.77 883.355 411.829 884.193C417.599 886.515 416.21 872.198 411.59 872.749Z" stroke="#B2B2B2" stroke-miterlimit="10"/>
<path d="M324.324 939.185C324.324 939.185 320.47 945.889 319.823 946.559C318.099 948.307 313.527 949.384 312.138 950.965C308.355 955.346 310.917 957.309 310.247 963.749C309.768 968.274 304.429 986.637 316.687 980.676C323.869 977.228 322.313 957.022 324.947 950.366C325.306 949.504 327.197 952.329 327.173 948.666C327.149 945.003 325.114 942.37 324.324 939.185Z" stroke="#B2B2B2" stroke-miterlimit="10"/>
<path d="M336.366 863.986C337.3 865.04 339.095 863.819 339.191 863.412C339.287 863.005 335.336 862.813 336.366 863.986Z" stroke="#B2B2B2" stroke-miterlimit="10"/>
<path d="M630.387 931.907C630.651 933.272 632.494 934.086 633.236 933.607C633.978 933.128 630.148 930.519 630.387 931.907Z" stroke="#B2B2B2" stroke-miterlimit="10"/>
<path d="M621.648 923.6C621.648 923.935 623.564 925.994 624.043 925.707C624.521 925.419 621.768 923.001 621.648 923.6Z" stroke="#B2B2B2" stroke-miterlimit="10"/>
<path d="M630.889 929.01C631.56 928.532 627.083 925.85 627.011 926.616C626.939 927.382 630.219 929.489 630.889 929.01Z" stroke="#B2B2B2" stroke-miterlimit="10"/>
<path d="M616.406 919.817C616.239 920.631 618.8 924.917 619.854 924.246C621.649 922.977 616.574 919.027 616.406 919.817Z" stroke="#B2B2B2" stroke-miterlimit="10"/>
<path d="M633.285 928.867C632.687 930.351 635.129 932.937 635.512 932.985C635.895 933.033 633.764 927.742 633.285 928.867Z" stroke="#B2B2B2" stroke-miterlimit="10"/>
<path d="M635.44 934.876C635.44 935.211 637.163 936.839 637.977 936.241C638.791 935.642 635.224 934.301 635.44 934.876Z" stroke="#B2B2B2" stroke-miterlimit="10"/>
<path d="M547.455 939.209C548.077 939.736 551.165 939.066 551.046 938.252C550.926 937.438 546.521 938.395 547.455 939.209Z" stroke="#B2B2B2" stroke-miterlimit="10"/>
<path d="M612.718 991.114C612.598 991.114 611.234 982.208 612 982.567C606.757 980.173 599.12 969.184 595.241 963.414C592.392 959.033 591.53 954.412 589.232 949.049C588.059 946.224 585.641 948.331 584.803 946.511C583.582 943.83 584.803 938.228 582.145 935.786C580.158 933.918 579.105 949.169 579.081 949.217C576.28 957.141 577.932 957.285 570.821 954.747C568.762 954.029 562.609 950.869 562.035 948.139C561.58 945.865 566.967 942.011 566.248 940.574C566.775 941.651 553.32 936.743 553.033 936.863C552.698 937.749 553.033 938.419 554.086 938.898C550.375 934.565 544.294 950.031 546.114 949.767C546.976 949.648 540.631 948.786 542.379 949.767C537.806 947.134 538.5 944.476 533.042 948.403C529.499 950.965 530.648 954.388 528.661 956.686C528.11 957.285 527.727 953.574 526.889 954.149C523.944 956.112 526.243 958.674 523.561 960.852C520.951 962.805 518.072 964.369 515.014 965.497C510.226 967.891 506.922 968.537 502.804 972.416C502.601 972.15 502.466 971.839 502.412 971.509C502.358 971.179 502.385 970.841 502.493 970.524C502.493 971.506 501.32 974.57 501.2 976.198C501.08 977.826 502.756 984.147 502.301 985.105C501.578 984.806 500.99 984.252 500.649 983.548C500.987 984.246 501.252 984.976 501.44 985.727L499.476 984.099C498.686 986.062 504.6 996.477 505.174 998.799C505.462 1000.02 505.39 1011.27 504.887 1010.22C508.694 1018 514.152 1012.61 520.425 1010.84C525.548 1009.33 528.852 1008.23 533.832 1006.39C537.663 1004.93 545.802 1002.06 549.944 1002.73C552.53 1003.16 565.362 1013.19 562.442 1014.5C563.327 1014.12 568.595 1007.56 568.93 1007.87C570.558 1009.4 566.224 1013.57 566.033 1014.55C565.243 1018.31 570.342 1011.58 568.978 1012.66C570.845 1011.2 569.959 1017.26 569.792 1016.78C569.624 1016.3 575.873 1024.8 576.447 1025.3C579.967 1028.32 588.729 1025.52 588.633 1025.45C588.777 1026.12 588.777 1026.83 588.633 1027.5C587.843 1026.52 591.554 1028.75 592.44 1029.59C590.644 1027.86 602.759 1024.08 602.399 1024.46C604.267 1022.4 605.344 1012.76 606.781 1009.64C608.002 1007.27 611.665 992.095 612.718 991.114Z" stroke="#B2B2B2" stroke-miterlimit="10"/>
<path d="M683.778 955.681C684.448 955.944 686.674 955.13 686.674 953.981C686.674 952.832 682.748 955.274 683.778 955.681Z" stroke="#B2B2B2" stroke-miterlimit="10"/>
<path d="M679.971 959.248C681 960.326 683.107 960.278 683.155 958.314C683.203 956.351 679.037 958.291 679.971 959.248Z" stroke="#B2B2B2" stroke-miterlimit="10"/>
<path d="M323.103 576.165C322.064 576.389 321.134 576.964 320.469 577.793C321.619 580.307 332.272 575.256 332.32 574.513C332.488 571.186 323.701 575.208 323.103 576.165Z" stroke="#B2B2B2" stroke-miterlimit="10"/>
<path d="M338.448 577.602C338.448 576.165 334.163 577.745 335.001 578.057C335.839 578.368 338.448 579.038 338.448 577.602Z" stroke="#B2B2B2" stroke-miterlimit="10"/>
<path d="M319.152 575.519C320.656 574.841 322.29 574.498 323.94 574.513C324.467 573.053 314.364 574.513 314.747 575.327C315.014 575.645 315.343 575.903 315.715 576.086C316.087 576.269 316.493 576.373 316.907 576.391C317.321 576.409 317.735 576.341 318.121 576.191C318.508 576.041 318.859 575.812 319.152 575.519Z" stroke="#B2B2B2" stroke-miterlimit="10"/>
<path d="M323.343 647.342C325.737 649.737 327.198 646.241 328.443 645.738C330.142 645.068 318.938 642.889 323.343 647.342Z" stroke="#B2B2B2" stroke-miterlimit="10"/>
<path d="M340.988 620.169C337.646 623.444 334.52 626.93 331.627 630.607C331.627 630.871 336.415 634.845 336.08 635.061C335.649 634.199 335.817 633.576 336.535 633.193C336.08 633.073 348.505 643.488 348.96 637.55C349.104 635.97 343.526 632.547 343.31 630.368C343.095 628.189 345.489 625.843 346.423 623.808C347.941 621.11 349.817 618.629 352.001 616.434C355.664 613.059 382.143 601.95 380.97 600.944C378.169 598.55 354.634 606.259 350.684 608.653C348.529 609.97 341.06 620.193 340.988 620.169Z" stroke="#B2B2B2" stroke-miterlimit="10"/>
<path d="M600.149 614.519C601.295 614.823 602.497 614.849 603.654 614.595C604.812 614.341 605.892 613.814 606.805 613.059C607.38 606.858 580.015 613.059 600.149 614.519Z" stroke="#B2B2B2" stroke-miterlimit="10"/>
<path d="M579.13 617.655C579.13 616.315 574.653 618.158 576.521 618.828C577.502 619.188 579.13 619.02 579.13 617.655Z" stroke="#B2B2B2" stroke-miterlimit="10"/>
<path d="M462.657 593.547C464.285 594.576 479.056 592.11 479.559 589.213C480.062 586.316 471.012 585.478 471.3 587.753C469.552 574.801 464.764 594.863 462.657 593.547Z" stroke="#B2B2B2" stroke-miterlimit="10"/>
<path d="M449.918 580.834C449.104 581.592 448.46 582.514 448.027 583.539C452.169 587.513 462.248 590.554 463.11 583.539C463.852 577.602 449.918 579.278 449.918 580.834Z" stroke="#B2B2B2" stroke-miterlimit="10"/>
<path d="M445.61 578.32C448.268 579.565 443.216 579.709 442.929 579.852C441.492 580.571 448.268 580.187 449.489 579.709C450.71 579.23 459.664 576.572 458.036 574.513C451.332 566.278 444.293 577.722 445.61 578.32Z" stroke="#B2B2B2" stroke-miterlimit="10"/>
<path d="M498.112 616.027C496.221 620.193 501.44 617.272 501.488 616.578C501.325 616.294 501.101 616.049 500.832 615.863C500.562 615.676 500.255 615.552 499.931 615.499C499.608 615.446 499.277 615.466 498.962 615.558C498.648 615.649 498.357 615.81 498.112 616.027Z" stroke="#B2B2B2" stroke-miterlimit="10"/>
<path d="M340.27 574.274C341.61 575.734 349.607 575.902 349.846 573.292C349.966 572.406 343.19 571.209 342.783 571.281C344.124 571.09 341.06 575.064 340.27 574.274Z" stroke="#B2B2B2" stroke-miterlimit="10"/>
<path d="M443.431 571.928C443.766 570.587 438.307 571.162 439.744 572.478C440.247 572.933 443.215 573.292 443.431 571.928Z" stroke="#B2B2B2" stroke-miterlimit="10"/>
<path d="M688.973 637.096C689.332 637.383 696.586 636.88 695.15 635.18C691.774 631.134 684.496 636.904 685.023 637.191C686.339 637.12 687.656 637.096 688.973 637.096Z" stroke="#B2B2B2" stroke-miterlimit="10"/>
<path d="M568.548 612.077C571.21 613.758 574.398 614.397 577.502 613.873C579.633 613.466 585.355 610.138 583.176 609.348C584.229 609.731 587.222 616.53 588.994 611.287C590.454 606.858 586.288 607.911 582.506 606.666C582.171 606.666 575.323 606.403 575.323 606.403C576.449 606.187 562.228 608.606 568.548 612.077Z" stroke="#B2B2B2" stroke-miterlimit="10"/>
<path d="M585.689 623.593C590.046 622.539 574.436 617.32 577.501 622.156C578.459 623.712 584.252 623.952 585.689 623.593Z" stroke="#B2B2B2" stroke-miterlimit="10"/>
<path d="M265.883 688.593C261.143 689.886 252.931 693.07 248.646 688.761C247.568 687.683 246.706 678.897 247.879 676.67C248.382 675.761 267.439 657.733 251.949 662.832C248.645 663.934 245.749 671.26 243.977 673.654C241.774 676.646 238.423 677.149 237.369 681.435C235.502 688.928 241.272 686.51 241.272 691.61C241.296 695.512 235.191 699.534 234.64 704.658C235.262 705.184 235.765 704.945 236.148 703.939C235.191 704.203 229.205 712.941 226.332 711.864C225.734 711.648 219.629 692.615 218.863 693.094C217.522 693.788 216.349 697.379 214.074 697.882C215.726 697.523 201.649 701.306 204.881 696.398C205.12 696.015 207.036 695.105 206.724 694.243C206.246 692.926 203.684 695.416 203.684 694.243C203.762 693.266 203.922 692.297 204.163 691.346C203.947 691.514 208.688 693.07 207.754 689.79C207.419 688.689 203.253 690.82 204.306 684.427C204.163 685.241 208.807 674.659 210.651 678.705C210.332 678.624 210.035 678.472 209.782 678.261C209.529 678.049 209.327 677.784 209.19 677.484C210.89 674.923 212.59 677.58 212.925 674.157C213.189 672.576 215.104 675.138 215.319 674.971C218.168 672.624 218.192 671.308 221.616 669.967C222.55 669.56 219.653 667.597 220.155 667.357C226.165 664.724 228.08 654.118 234.52 651.508C234.568 651.508 234.903 649.114 234.903 649.114C232.629 646.983 227.721 652.466 225.59 652.346C226.189 652.37 233.85 645.02 233.85 645.02C233.586 645.858 233.371 646.696 233.179 647.534C233.179 647.318 237.968 647.318 237.968 647.318C238.375 645.02 235.669 646.241 235.574 645.595C235.478 644.948 241.2 640.591 241.415 640.591C244.264 639.346 243.833 641.525 245.892 642.865C247.041 643.608 246.036 639.825 245.892 639.825C247.023 640.455 248.254 640.885 249.531 641.094C248.87 640.752 248.327 640.218 247.975 639.562C249.02 639.421 250.081 639.462 251.111 639.681C250.943 638.889 250.543 638.164 249.962 637.598C249.89 636.593 254.08 636.689 253.937 636.114C253.601 634.917 250.25 641.716 252.907 640.902C250.872 641.525 257.767 636.425 256.402 637.598C256.402 637.598 260.784 632.643 261.191 635.204C261.191 635.348 256.977 640.304 258.413 639.992L262.364 635.731C263.058 635.276 262.388 638.652 262.795 638.652C263.872 638.652 265.572 631.541 267.583 635.372C267.679 635.539 266.17 638.58 267.152 638.58C265.931 638.532 275.843 633.504 274.789 639.155C274.67 639.801 269.833 641.118 269.666 640.447C270.6 643.943 273.688 640.759 274.957 642.171C275.484 642.65 280.2 640.399 280.463 642.65C279.858 643.078 279.145 643.327 278.404 643.368C280.056 641.333 299.281 649.473 301.101 652.729C310.557 669.68 279.625 654.98 277.519 656.033C280.535 654.525 288.005 670.924 289.369 672.002C294.876 676.335 293.846 667.692 290.686 669.488C289.346 668.052 289.633 666.902 291.548 666.017L294.708 668.075C295.522 667.453 300.694 670.613 300.909 669.033C302.202 659.696 302.202 665.322 308.714 660.103C309.073 659.84 315.633 660.223 309.983 656.177C312.257 657.805 309.288 648.276 309.408 648.779C309.049 646.983 321.02 650.072 318.626 652.921C318.003 653.687 310.126 653.495 315.346 657.015C320.565 660.534 319.966 655.243 322.791 653.998C324.922 653.112 339.55 648.324 339.55 647.199C339.694 648.97 338.162 649.641 337.3 650.359C336.438 651.077 347.642 649.186 347.642 649.186C354.657 648.563 351.497 648.851 354.537 650.096C362.294 653.232 354.274 638.604 352.861 639.418C358.176 636.353 375.677 651.724 379.987 650.981C386.14 649.976 375.558 643.201 375.558 643.201C375.989 644.398 376.348 635.348 376.204 637.215C376.707 630.392 386.475 619.475 392.293 629.051C392.245 628.932 391.694 641.022 391.91 642.171C392.652 646.169 394.399 648.97 393.37 652.466C391.718 658.02 381.902 659.265 381.902 659.002C381.232 660.917 388.654 661.3 389.491 661.109C392.508 660.438 395.453 656.44 397.631 653.687C399.475 651.317 394.759 648.492 399.714 647.654C403.21 647.031 402.348 649.306 404.981 650.455C401.127 648.803 409.985 659.121 408.668 654.86C406.202 646.696 398.852 649.521 394.902 644.158C393.418 642.171 395.573 624.479 399.236 625.724C402.899 626.968 398.206 632.571 399.93 634.51C400.05 634.63 408.716 636.449 408.716 636.449C409.363 635.683 401.175 632.93 402.061 631.182C403.186 629.003 405.58 631.302 407.16 630.847C407.95 630.631 404.359 628.118 404.622 627.878C407.591 624.862 417.981 633.864 419.562 631.685C423.56 626.226 402.922 624.838 423.56 620.48C425.044 620.169 430.191 620.624 431.077 619.786C432.562 618.421 429.282 616.458 429.282 616.458C429.978 616.478 430.675 616.438 431.365 616.339C431.341 616.051 428.348 614.663 428.611 614.351L431.005 614.495C432.346 612.676 430.742 612.819 433.878 611.359C434.836 610.904 448.123 606.379 448.243 607.361C447.895 607.276 447.567 607.122 447.279 606.908C446.991 606.694 446.749 606.425 446.567 606.116C449.492 605.298 452.479 604.722 455.497 604.392C455.234 604.967 454.971 605.541 454.731 606.116C455.138 606.259 463.135 604.488 462.847 605.445C462.2 604.994 461.599 604.481 461.052 603.913C461.267 608.079 467.971 599.197 466.558 600.226C469.335 598.215 476.901 591.847 480.181 596.85C481.162 598.263 476.805 599.005 476.182 599.245C477.092 598.909 484.275 600.849 484.275 600.274C483.488 601.136 482.812 602.093 482.264 603.123C487.339 604.392 491.672 600.083 497.418 602.788C501.919 604.919 500.579 606.762 501.057 608.917C502.733 616.147 482.383 617.991 479.678 624.957C479.941 624.263 492.51 622.252 492.367 620.935C491.792 620.792 491.241 620.648 490.691 620.456C489.805 619.331 499.717 619.212 500.435 619.331C501.919 619.595 500.722 623.138 501.728 623.138C505.534 622.779 510.299 619.906 516.38 621.51C517.146 621.701 515.35 622.635 515.566 623.377C515.949 624.742 527.704 625.245 528.925 625.029C529.763 624.886 530.146 620.002 532.54 619.523C535.652 618.852 550.328 627.639 546.139 630.033C545.106 630.09 544.077 629.884 543.146 629.434C544.822 629.315 547.36 637.191 550.64 637.383C552.866 637.527 554.566 631.158 555.548 631.398C556.529 631.637 571.229 634.414 571.229 634.414C570.637 634.172 570.1 633.814 569.649 633.361C570.511 632.762 575.802 633.72 575.802 633.361C575.969 635.3 574.198 628.86 575.682 629.674C575.342 629.85 574.964 629.942 574.581 629.942C574.197 629.942 573.82 629.85 573.479 629.674C571.181 626.514 594.452 623.76 593.662 628.405C593.542 629.219 588.395 627.711 589.305 629.219C590.387 629.447 591.44 629.8 592.441 630.272C591.747 630.799 591.004 631.302 590.262 631.757C590.358 631.302 601.155 626.226 603.789 630.655C604.986 632.666 600.485 631.206 600.892 632.403C602.257 636.521 615.76 636.306 618.537 636.521C627.563 637.311 626.916 637.981 631.704 642.099C631.657 642.051 637.163 646.84 635.99 647.414C637.355 646.72 635.583 643.751 638.935 644.062C641.497 644.432 644.08 644.64 646.668 644.685C648.224 644.446 658.902 641.597 658.638 643.632C658.327 646.169 656.699 643.512 655.478 644.086C654.257 644.661 659.596 649.401 660.721 648.707C663.163 647.199 661.391 643.392 661.128 643.392C664.145 642.027 672.572 641.836 677.528 642.913C686.41 644.829 702.259 653.328 704.653 661.085C705.084 662.545 703.983 654.836 703.791 657.757C703.959 655.123 716.6 662.713 716.6 662.713C718.06 663.263 711.62 665.49 712.554 664.915C712.314 665.059 714.134 666.136 713.344 666.136L710.231 665.418C710.734 665.825 708.197 669.799 707.933 669.632C708.496 670.048 708.922 670.623 709.154 671.284C706.09 674.252 689.953 662.641 691.917 661.563C688.445 663.455 691.126 665.442 689.163 666.591C687.799 667.405 678.414 671.092 677.839 669.177C679.347 674.133 690.193 673.726 683.202 680.381C682.34 681.219 671.902 683.805 669.172 685.385C666.443 686.965 663.163 691.418 660.769 692.041C661.152 691.921 648.056 687.683 649.181 692.304C649.319 691.849 649.339 691.366 649.238 690.901C649.138 690.436 648.92 690.004 648.607 689.646C645.979 690.73 643.501 692.146 641.233 693.86C636.397 699.654 639.82 699.055 640.874 702.192C640.467 700.779 639.15 710.499 640.874 708.775C640.73 708.919 622.128 730.466 622.655 731.065C619.255 727.258 618.824 713.157 620.261 708.656C622.511 701.593 625.049 702.216 630.22 697.763C634.194 694.315 645.878 684.571 646.309 680.381C646.548 677.508 632.734 689.718 632.183 688.521C632.327 688.785 632.087 682.823 632.734 683.254C627.802 679.855 614.227 690.341 618.226 694.818C618.776 695.464 606.183 697.188 607.26 696.302C607.971 696.207 608.66 695.989 609.295 695.656C609.918 694.602 591.555 694.147 589.496 694.459C581.212 695.632 578.124 699.965 572.043 705.639C570.128 707.435 562.85 712.343 562.467 714.737C562.73 713.109 569.649 718.208 567.063 718.807C566.848 718.855 569.242 716.485 569.242 716.7C569.242 716.915 568.763 720.267 569.242 720.267C573.36 720.004 574.174 713.683 578.507 720.578C580.734 724.098 578.124 729.03 577.119 733.1C575.499 740.331 572.175 747.07 567.422 752.755C565.172 755.581 562.419 760.058 558.66 761.662C554.901 763.266 554.422 759.339 550.999 762.045C548.114 764.681 545.723 767.81 543.936 771.286C541.207 777.942 541.997 770.687 543.074 778.061C543.673 781.557 548.461 784.837 546.067 788.739C545.827 789.074 538.142 792.977 537.544 792.043C536.131 789.769 539.004 784.765 538.525 783.257C537.951 781.341 534.671 780.647 534.671 780.647C535.341 781.988 530.864 774.303 534.168 776.433C527.034 771.837 531.774 777.654 522.916 777.152C522.269 777.152 525.43 770.209 525.142 769.969C523.921 768.916 512.645 776.577 512.645 777.582C514.454 779.45 516.364 781.216 518.367 782.873C514.943 781.198 530.744 780.001 526.387 783.376C523.586 785.459 518.08 785.627 517.409 790.247C517.266 790.583 524.879 800.805 524.448 801.284C525.214 800.494 520.426 800.829 520.426 800.829C526.052 800.829 522.964 807.677 521.623 806.719C522.317 807.222 524.616 806.982 525.382 807.222C524.592 807.078 517.792 822.161 516.308 823.98C513.914 826.973 490.739 838.417 491.241 838.944C488.656 836.238 490.691 833.27 484.849 835.664C476.446 838.944 481.354 845.695 483.748 850.483C488.68 859.892 491.936 862.023 483.365 870.187C483.054 870.474 477.427 875.885 476.925 875.55C477.212 875.813 473.142 868.751 472.783 868.367C471.801 867.266 466.486 860.227 464.092 861.017C456.048 863.747 464.954 878.758 467.037 881.511C468.689 883.666 478.505 896.618 474.914 898.462C469.886 901.023 459.615 879.787 458.825 876.771C457.46 871.552 458.993 864.657 457.604 858.767C453.343 840.835 454.755 857.474 448.554 852.303C445.514 849.837 446.352 834.275 440.726 831.187C438.212 829.822 427.821 839.375 426.241 840.955C417.479 849.645 413.624 851.872 411.446 863.459C403.617 904.95 392.46 834.275 390.186 833.126C392.747 834.371 378.55 842.679 380.609 832.575C382.013 832.512 383.361 832.01 384.464 831.139C384.464 833.677 374.839 824.555 375.438 824.842C371.56 822.855 370.171 822.999 365.335 822.855C360.499 822.712 355.471 823.478 350.683 821.945C348.983 821.395 347.379 818.809 346.948 818.809C345.751 818.498 341.777 818.737 340.963 818.354C336.941 816.559 325.257 805.761 323.294 806.815C320.038 808.586 326.335 821.538 328.729 823.406C328.753 823.43 329.615 820.03 330.764 820.389C333.325 821.155 329.04 826.494 333.325 826.877C338.616 827.38 341.968 819.288 344.65 819.527C343.309 819.408 353.771 831.69 354.082 833.294C354.394 834.898 347.499 843.014 346.9 843.66C341.106 849.669 331.219 854.649 322.672 858.36C317.907 860.443 311.132 863.89 307.972 860.443C305.626 857.905 305.985 850.412 304.404 847.036C301.029 839.71 296.624 833.509 293.2 826.47C291.979 824.076 286.161 810.837 284.27 809.712C283.958 811.236 283.383 812.694 282.57 814.021C280.655 814.021 278.668 805.833 277.95 806.096C278.357 805.953 290.806 840.141 291.692 842.535C293.703 848.233 298.515 852.399 301.963 856.588C304.145 859.92 305.997 863.456 307.493 867.146C315.01 871.935 322.313 862.574 328.92 864.968C338.473 868.511 307.732 900.903 305.147 903.705C298.922 910.456 294.277 916.992 296.001 926.066C297.605 934.589 303.375 943.83 297.797 952.186C295.211 956.232 288.172 956.902 285.635 961.379C282.498 966.957 286.113 966.933 285.276 972.751C284.078 980.915 281.421 977.491 277.159 983.764C276.676 987.052 275.923 990.295 274.909 993.46C268.684 1005.53 261.67 1009.33 249.531 1010.82C236.938 1012.37 240.338 1009.93 236.364 998.703C233.443 990.42 230.785 985.105 228.942 976.39C227.936 971.53 221.305 960.565 221.76 955.896C222.047 948.953 226.691 943.495 227.553 937.15C228.367 931.261 224.561 921.086 221.592 915.939C217.929 909.714 215.655 908.732 215.535 902.532C215.511 901.741 217.259 896.881 216.684 895.349C213.62 888.454 215.942 891.734 209.957 887.951C208.903 887.281 207.467 889.22 206.174 888.646C204.881 888.071 205.264 885.653 204.282 885.174C202.093 884.136 199.96 882.986 197.89 881.727C197.1 880.721 189.535 884.959 188.816 885.15C183.123 886.984 177.149 887.795 171.172 887.544C159.896 886.467 152.929 877.633 147.063 868.056C144.453 863.843 142.035 861.688 141.868 856.349C141.7 851.465 143.256 846.198 143.448 841.266C143.663 835.951 142.227 834.993 144.621 828.912C146.772 823.6 149.826 818.7 153.647 814.428C155.035 812.968 157.501 812.728 158.722 810.885C160.59 808.06 160.279 805.498 161.428 803.535C162.864 801.021 164.109 798.148 165.665 795.754C164.396 797.765 174.691 788.38 171.411 790.104C174.524 788.452 173.111 789.936 176.63 789.002C180.772 787.925 184.411 788.284 188.84 787.015C193.092 785.476 197.475 784.33 201.936 783.592C205.575 783.185 218.312 780.838 220.179 783.472C223.244 787.734 216.397 791.277 220.443 795.443C224.489 799.608 240.146 804.947 243.785 803.487C244.001 803.391 243.426 799.321 245.461 798.244C251.566 795.036 249.148 798.818 253.793 799.441C256.642 799.92 258.916 801.284 261.789 801.835C272.539 803.846 280.894 805.929 285.18 795.73L286.568 796.376M265.883 688.593C266.255 687.933 266.697 687.315 267.2 686.75C266.704 687.321 266.263 687.938 265.883 688.593ZM265.883 688.593C267.817 688.814 269.658 689.541 271.222 690.7C272.252 691.945 257.959 693.501 258.581 693.094C249.388 697.499 258.27 697.332 255.948 699.965C253.194 704.346 252.644 701.019 251.495 701.952C251.111 702.263 244.312 702.79 246.826 707.866C249.22 713.396 244.432 714.737 241.343 715.862C241.607 715.862 233.347 716.652 231.36 716.915C227.051 717.442 229.325 718.041 227.218 715.048C226.332 713.779 221.281 718.52 220.347 717.825C220.167 717.151 220.167 716.441 220.347 715.766C219.174 715.455 215.559 715.766 215.918 712.63C215.918 712.055 219.078 714.282 219.318 712.893C219.796 710.26 217.833 711.984 217.067 710.81C216.708 710.236 220.467 703.891 218.504 701.737C217.187 700.276 214.984 705.232 214.984 705.232C213.572 706.645 212.183 704.107 211.992 710.02C211.992 711.912 215.607 716.221 214.697 718.065C213.979 719.477 206.078 720.938 204.618 721.895C201.959 724.177 199.478 726.658 197.196 729.317C195.672 731.139 193.981 732.814 192.144 734.321C189.918 735.35 185.249 734.752 184.507 735.159C182.903 736.092 186.015 738.582 184.507 739.803C182.999 741.024 178.713 737.194 177.708 739.085C174.978 744.161 179.072 740.306 181.467 744.161C184.77 749.452 189.918 755.748 182.233 759.651C178.665 761.47 169.927 756.778 167.03 758.358C161.571 761.326 165.833 761.063 164.636 766.139C162.242 776.457 162.505 780.791 170.98 783.544C174.085 784.643 177.471 784.656 180.585 783.582C183.698 782.508 186.355 780.41 188.122 777.63C192.049 772.363 194.395 763.266 200.38 759.507C199.015 760.369 212.877 757.951 211.752 757.903C217.69 758.19 213.979 757.352 219.054 761.302C218.887 761.183 238.662 779.282 233.036 779.282C236.22 779.282 235.119 771.286 235.43 771.094C236.071 770.985 236.73 771.035 237.348 771.239C237.966 771.444 238.524 771.797 238.973 772.267C236.866 771.645 217.211 750.72 226.787 751.056C228.104 751.056 238.399 762.739 241.655 764.606M241.655 764.606C241.701 764.344 241.773 764.088 241.87 763.84M241.655 764.606C238.447 762.715 250.25 782.61 250.25 777.966C250.25 773.872 244.935 788.117 251.901 784.262C251.926 783.218 251.755 782.179 251.399 781.198C252.033 781.377 252.704 781.377 253.338 781.198C254.344 779.929 251.231 780.096 251.854 779.45C252.476 778.803 255.828 780.671 255.373 778.013C254.798 774.781 252.979 778.013 251.854 776.721C252.237 777.151 251.351 770.304 250.8 770.544C251.894 770.865 253.017 771.081 254.152 771.19C255.995 770.376 265.883 770.448 268.277 768.054C267.655 768.676 264.327 762.763 264.542 761.614C265.849 758.95 267.455 756.443 269.331 754.144C270.456 752.54 270.983 748.829 273.329 747.752C274.813 747.057 281.421 747.321 281.78 749.332C280.67 750.262 279.428 751.02 278.093 751.582C277.973 750.888 281.086 755.413 281.014 755.317C280.942 755.221 289.513 753.067 289.633 752.923C290.136 752.061 281.876 752.54 285.85 748.302C286.784 747.321 296.049 743.849 296.695 745.286C296.839 745.597 290.183 751.87 290.399 752.971C291.285 757.137 304.021 759.387 303.59 763.936C303.016 770.065 295.714 767.91 291.428 767.838C289.585 767.838 288.148 765.779 286.377 765.66C280.511 765.301 277.064 766.641 271.557 768.197C264.375 770.161 256.594 773.824 264.806 782.227C268.684 786.153 272.443 784.501 276.776 784.621C278.189 784.621 286.951 782.73 288.125 783.496C289.298 784.262 285.587 794.605 285.132 795.706L286.568 796.376M286.568 796.376C286.568 796.688 286.568 796.975 286.568 797.286C286.568 796.999 286.568 796.688 286.568 796.376Z" stroke="#B2B2B2" stroke-miterlimit="10"/>
<path d="M363.085 574.729C365.479 571.186 352.144 573.149 355.185 575.806C356.48 576.338 357.892 576.519 359.28 576.33C360.667 576.141 361.98 575.588 363.085 574.729Z" stroke="#B2B2B2" stroke-miterlimit="10"/>
<path d="M349.032 576.429C347.787 576.955 346.518 577.434 345.225 577.841C343.549 579.732 353.724 579.421 354.371 577.243C354.778 575.926 348.912 576.069 349.032 576.429Z" stroke="#B2B2B2" stroke-miterlimit="10"/>
<path d="M348.623 571.569C350.402 571.132 352.117 570.464 353.723 569.581C352.645 568.121 345.152 570.994 345.008 570.491C345.495 570.924 346.071 571.245 346.696 571.432C347.321 571.618 347.978 571.664 348.623 571.569Z" stroke="#B2B2B2" stroke-miterlimit="10"/>
<path d="M581.931 729.987C583.679 734.297 578.46 746.746 581.189 750.242C579.346 747.848 585.331 750.505 585.379 750.505C585.427 750.505 582.985 743.323 583.128 743.035C585.283 738.247 587.486 740.474 588.204 739.516C589.497 737.744 581.836 718.184 582.913 717.49C579.896 719.453 580.998 727.737 581.931 729.987Z" stroke="#B2B2B2" stroke-miterlimit="10"/>
<path d="M384.92 624.311C386.421 624.441 387.922 624.062 389.181 623.234C390.953 619.834 381.209 623.689 384.92 624.311Z" stroke="#B2B2B2" stroke-miterlimit="10"/>
<path d="M411.015 624.67C410.847 623.234 407.831 625.101 408.884 625.676C409.938 626.25 411.183 626.131 411.015 624.67Z" stroke="#B2B2B2" stroke-miterlimit="10"/>
<path d="M368.997 574.274L371.391 572.957C372.181 570.204 363.994 573.604 364.209 574.011C365.712 574.709 367.426 574.803 368.997 574.274Z" stroke="#B2B2B2" stroke-miterlimit="10"/>
<path d="M642.741 966.574C642.909 967.651 649.923 973.421 650.785 972.703C651.647 971.985 642.573 965.449 642.741 966.574Z" stroke="#B2B2B2" stroke-miterlimit="10"/>
<path d="M16.368 871.216C18.427 871.671 19.0973 870.977 18.3551 869.158C16.8947 867.817 15.6977 870.522 16.368 871.216Z" stroke="#B2B2B2" stroke-miterlimit="10"/>
<path d="M486.311 911.462C486.311 910.648 484.18 911.031 484.826 912.18C485.473 913.329 486.311 912.276 486.311 911.462Z" stroke="#B2B2B2" stroke-miterlimit="10"/>
<path d="M503.283 928.843C504.362 929.096 505.484 929.096 506.563 928.843C508.023 927.646 498.686 926.042 498.926 926.161C498.963 925.837 499.067 925.523 499.23 925.239C499.393 924.956 499.613 924.709 499.875 924.514C500.138 924.319 500.438 924.179 500.756 924.105C501.074 924.03 501.405 924.021 501.727 924.079C499.333 925.707 477.977 918.548 479.414 923.576C479.988 925.707 502.373 930.255 503.283 928.843Z" stroke="#B2B2B2" stroke-miterlimit="10"/>
<path d="M528.567 928.915C530.674 928.915 530.961 928.627 529.477 928.029C525.745 928.087 522.03 928.536 518.392 929.37C519.829 932.242 526.724 929.034 528.567 928.915Z" stroke="#B2B2B2" stroke-miterlimit="10"/>
<path d="M512.07 927.837C511.28 929.801 509.341 927.167 508.359 928.484C506.3 931.237 515.374 931.165 516.164 929.274C516.643 928.173 512.429 926.952 512.07 927.837Z" stroke="#B2B2B2" stroke-miterlimit="10"/>
<path d="M487.938 900.664C494.115 907.009 491.122 912.467 501.345 912.994C509.82 913.449 510.323 906.673 515.853 899.754C515.47 900.209 512.19 892.452 512.214 891.71C512.406 888.406 516.332 888.909 517.002 886.706C517.673 884.504 509.102 882.948 508.647 883.043C505.87 883.642 507.282 888.526 502.518 888.167C502.374 888.167 494.21 897.528 494.163 897.6C494.785 896.139 483.628 896.331 487.938 900.664Z" stroke="#B2B2B2" stroke-miterlimit="10"/>
<path d="M455.497 898.222C455.354 899.132 456.239 901.741 457.221 900.616C458.203 899.491 455.665 897.336 455.497 898.222Z" stroke="#B2B2B2" stroke-miterlimit="10"/>
<path d="M459.519 905.907C459.376 906.338 460.262 908.158 460.836 907.607C461.411 907.056 459.974 904.543 459.519 905.907Z" stroke="#B2B2B2" stroke-miterlimit="10"/>
<path d="M479.966 915.963C479.727 912.18 481.858 913.185 481.834 910.743C481.834 909.69 478.386 906.458 478.314 908.349C478.974 908.992 479.561 909.707 480.062 910.48C479.344 912.3 470.916 899.467 470.486 898.988C468.522 896.762 451.524 883.666 450.758 885.461C450.207 886.73 463.83 906.314 465.602 908.78C467.373 911.246 480.732 927.981 479.966 915.963Z" stroke="#B2B2B2" stroke-miterlimit="10"/>
<path d="M521.264 933.775C521.264 931.381 516.476 932.65 516.165 932.243C515.854 931.836 521.264 936.025 521.264 933.775Z" stroke="#B2B2B2" stroke-miterlimit="10"/>
<path d="M515.758 910.552C515.351 911.27 520.929 919.41 518.631 920.368C520.786 919.482 518.871 910.456 521.025 911.509C525.071 913.497 520.594 919.075 526.005 914.861C523.132 917.088 526.149 899.97 528.399 904.806C528.686 905.452 516.141 908.756 519.278 903.633C522.701 898.031 530.314 904.423 533.307 898.222C531.511 901.981 524.066 897.408 521.576 899.084C517.626 901.694 517.913 906.745 515.758 910.552Z" stroke="#B2B2B2" stroke-miterlimit="10"/>
<path d="M541.613 912.635C543.94 913.521 546.344 914.186 548.796 914.622C551.98 914.622 540.129 907.751 541.613 912.635Z" stroke="#B2B2B2" stroke-miterlimit="10"/>
<path d="M542.022 898.485C542.022 892.452 537.018 904.902 541.615 903.992C544.751 903.369 542.022 898.366 542.022 898.485Z" stroke="#B2B2B2" stroke-miterlimit="10"/>
<path d="M532.779 932.242C534.216 930.399 538.956 930.136 539.579 928.316C539.914 927.263 532.277 930.71 531.582 930.71C530.481 930.902 527.321 933.248 529.188 934.421C529.936 934.457 530.677 934.268 531.317 933.88C531.956 933.492 532.466 932.922 532.779 932.242Z" stroke="#B2B2B2" stroke-miterlimit="10"/>
<path d="M535.965 912.802C536.276 914.239 538.67 915.053 539.317 913.808C539.963 912.563 535.582 911.15 535.965 912.802Z" stroke="#B2B2B2" stroke-miterlimit="10"/>
<path d="M212.207 769.155C211.441 770.568 213.165 778.732 216.301 774.686C218.887 771.406 214.17 765.42 212.207 769.155Z" stroke="#B2B2B2" stroke-miterlimit="10"/>
<path d="M230.139 778.827C230.714 778.684 223.819 778.205 224.441 780.048C226.208 781.68 228.251 782.986 230.475 783.903C231.007 782.27 231.639 780.671 232.366 779.115C232.088 778.813 231.712 778.619 231.305 778.566C230.898 778.514 230.485 778.606 230.139 778.827Z" stroke="#B2B2B2" stroke-miterlimit="10"/>
<path d="M529.667 613.537C522.549 613.537 515.723 616.365 510.69 621.398C505.657 626.431 502.829 633.258 502.829 640.376C502.829 653.783 527.584 685.337 527.584 685.337H529.667C529.667 685.337 556.529 655.219 556.529 640.376C556.529 636.849 555.834 633.357 554.484 630.1C553.134 626.842 551.155 623.882 548.66 621.39C546.165 618.897 543.204 616.921 539.945 615.574C536.686 614.226 533.194 613.534 529.667 613.537ZM529.667 653.495C527.072 653.495 524.536 652.726 522.378 651.284C520.221 649.843 518.539 647.794 517.546 645.396C516.553 642.999 516.293 640.361 516.799 637.816C517.306 635.271 518.555 632.933 520.39 631.098C522.225 629.264 524.563 628.014 527.108 627.508C529.653 627.002 532.291 627.261 534.688 628.254C537.085 629.247 539.134 630.929 540.576 633.087C542.017 635.244 542.787 637.781 542.787 640.376C542.79 642.099 542.453 643.807 541.795 645.4C541.136 646.993 540.17 648.441 538.951 649.66C537.732 650.879 536.285 651.845 534.692 652.503C533.098 653.161 531.391 653.498 529.667 653.495Z" fill="#263238" stroke="#263238" stroke-linecap="round" stroke-linejoin="round"/>
<path d="M381.926 627.088C377.602 627.088 373.455 628.806 370.397 631.863C367.34 634.921 365.622 639.068 365.622 643.392C365.622 651.508 380.657 670.661 380.657 670.661H381.926C381.926 670.661 398.206 652.394 398.206 643.392C398.209 641.252 397.79 639.133 396.974 637.155C396.157 635.177 394.958 633.379 393.446 631.865C391.934 630.351 390.138 629.149 388.162 628.33C386.185 627.51 384.066 627.088 381.926 627.088ZM381.926 651.341C380.347 651.345 378.803 650.881 377.488 650.007C376.173 649.133 375.148 647.888 374.541 646.43C373.935 644.972 373.775 643.367 374.082 641.819C374.389 640.27 375.148 638.847 376.265 637.731C377.381 636.614 378.804 635.855 380.353 635.548C381.901 635.241 383.506 635.401 384.964 636.007C386.422 636.614 387.667 637.639 388.541 638.954C389.415 640.269 389.879 641.813 389.875 643.392C389.868 645.498 389.029 647.516 387.539 649.006C386.05 650.495 384.032 651.334 381.926 651.341Z" fill="#263238" stroke="#263238" stroke-linecap="round" stroke-linejoin="round"/>
<path d="M-7.69258 930.591C-9.2949 930.591 -10.8815 930.907 -12.3615 931.52C-13.8416 932.134 -15.186 933.034 -16.3179 934.168C-17.4498 935.302 -18.3469 936.649 -18.9579 938.13C-19.5689 939.611 -19.8818 941.198 -19.8786 942.801C-19.8786 948.858 -8.65025 963.198 -8.65025 963.198H-7.69258C-7.69258 963.198 4.49347 949.528 4.49347 942.801C4.49662 941.198 4.18373 939.611 3.57273 938.13C2.96174 936.649 2.06462 935.302 0.932722 934.168C-0.199171 933.034 -1.54361 932.134 -3.02366 931.52C-4.5037 930.907 -6.09027 930.591 -7.69258 930.591ZM-7.69258 948.738C-8.87265 948.738 -10.0262 948.388 -11.007 947.732C-11.9879 947.076 -12.7519 946.143 -13.2024 945.052C-13.6529 943.962 -13.7696 942.762 -13.5376 941.605C-13.3056 940.448 -12.7355 939.386 -11.8994 938.553C-11.0632 937.72 -9.9988 937.154 -8.84084 936.927C-7.68287 936.7 -6.48352 936.821 -5.39465 937.276C-4.30578 937.731 -3.3764 938.499 -2.72425 939.482C-2.07209 940.466 -1.72651 941.621 -1.73125 942.801C-1.73759 944.378 -2.36842 945.888 -3.48571 947C-4.60299 948.113 -6.11567 948.738 -7.69258 948.738Z" fill="#263238" stroke="#263238" stroke-linecap="round" stroke-linejoin="round"/>
<path d="M497.082 761.877C494.942 761.874 492.823 762.293 490.845 763.109C488.867 763.926 487.069 765.125 485.555 766.637C484.041 768.149 482.84 769.945 482.02 771.921C481.2 773.898 480.778 776.017 480.778 778.157C480.778 786.297 495.813 805.45 495.813 805.45H497.082C497.082 805.45 513.362 787.159 513.362 778.157C513.362 773.839 511.647 769.699 508.594 766.645C505.541 763.592 501.4 761.877 497.082 761.877ZM497.082 786.13C495.504 786.134 493.961 785.671 492.647 784.798C491.332 783.924 490.307 782.681 489.7 781.225C489.093 779.768 488.931 778.165 489.236 776.617C489.541 775.068 490.299 773.646 491.413 772.528C492.527 771.411 493.947 770.649 495.494 770.34C497.041 770.03 498.646 770.187 500.104 770.789C501.562 771.392 502.808 772.414 503.685 773.725C504.563 775.037 505.031 776.579 505.031 778.157C505.04 779.208 504.842 780.251 504.447 781.225C504.052 782.199 503.468 783.085 502.73 783.832C501.991 784.58 501.112 785.174 500.142 785.581C499.173 785.987 498.133 786.198 497.082 786.201V786.13Z" fill="#263238" stroke="#263238" stroke-linecap="round" stroke-linejoin="round"/>
<path d="M573.528 927.766C569.203 927.766 565.057 929.483 561.999 932.541C558.941 935.598 557.224 939.745 557.224 944.069C557.224 952.209 572.259 971.362 572.259 971.362H573.528C573.528 971.362 589.808 953.071 589.808 944.069C589.811 941.93 589.392 939.81 588.575 937.832C587.758 935.854 586.56 934.057 585.048 932.542C583.536 931.028 581.74 929.827 579.763 929.007C577.786 928.187 575.668 927.766 573.528 927.766ZM573.528 952.018C571.956 952.018 570.419 951.552 569.112 950.678C567.805 949.805 566.786 948.564 566.184 947.111C565.583 945.659 565.425 944.061 565.732 942.519C566.039 940.977 566.796 939.561 567.907 938.449C569.019 937.337 570.435 936.58 571.977 936.274C573.519 935.967 575.117 936.124 576.569 936.726C578.022 937.328 579.263 938.346 580.137 939.654C581.01 940.961 581.476 942.497 581.476 944.069C581.476 946.178 580.639 948.199 579.148 949.69C577.657 951.18 575.636 952.018 573.528 952.018Z" fill="#263238" stroke="#263238" stroke-linecap="round" stroke-linejoin="round"/>
<path d="M246.037 617.272C241.719 617.272 237.578 618.988 234.525 622.041C231.472 625.094 229.757 629.235 229.757 633.552C229.757 641.692 244.792 660.845 244.792 660.845H246.037C246.037 660.845 262.341 642.554 262.341 633.552C262.341 631.412 261.919 629.293 261.099 627.317C260.28 625.34 259.078 623.544 257.564 622.032C256.05 620.52 254.252 619.321 252.274 618.505C250.296 617.688 248.177 617.269 246.037 617.272ZM246.037 641.525C244.46 641.525 242.919 641.057 241.608 640.181C240.297 639.305 239.275 638.06 238.671 636.603C238.068 635.146 237.91 633.543 238.218 631.997C238.525 630.45 239.285 629.03 240.4 627.915C241.514 626.8 242.935 626.041 244.482 625.733C246.028 625.425 247.631 625.583 249.088 626.187C250.545 626.79 251.79 627.812 252.666 629.123C253.542 630.434 254.009 631.976 254.009 633.552C254.009 635.667 253.169 637.695 251.674 639.19C250.179 640.685 248.151 641.525 246.037 641.525Z" fill="#263238" stroke="#263238" stroke-linecap="round" stroke-linejoin="round"/>
</g>
<defs>
<filter id="filter0_f_168_1185" x="-670" y="103" width="1637" height="1637" filterUnits="userSpaceOnUse" color-interpolation-filters="sRGB">
<feFlood flood-opacity="0" result="BackgroundImageFix"/>
<feBlend mode="normal" in="SourceGraphic" in2="BackgroundImageFix" result="shape"/>
<feGaussianBlur stdDeviation="250" result="effect1_foregroundBlur_168_1185"/>
</filter>
<filter id="filter1_f_168_1185" x="480" y="-717" width="1637" height="1637" filterUnits="userSpaceOnUse" color-interpolation-filters="sRGB">
<feFlood flood-opacity="0" result="BackgroundImageFix"/>
<feBlend mode="normal" in="SourceGraphic" in2="BackgroundImageFix" result="shape"/>
<feGaussianBlur stdDeviation="250" result="effect1_foregroundBlur_168_1185"/>
</filter>
</defs>
</svg>
